PathFileType	4	(X/Y/Z)	Run_300 01
DataRate	CameraRate	NumFrames	NumMarkers	Units	OrigDataRate	OrigDataStartFrame	OrigNumFrames
120	120	5	42	mm	120	325	128
Frame#	Time	LASI			RASI			LPSI			RPSI			RTH1			RTH3			LTH1			LTH2			LTH3			RTB1			RTB2			RTB3			LTB1			LTB2			LTB3			RCAL			RTOE			RMT5			LCAL			LTOE			LMT5			LACR			RACR			CLAV			C7			RUA1			RUA2			RUA3			RLEL			RMEL			LUA1			LUA2			LUA3			LLEL			LMEL			RFAsuperior			RFAradius			RFAulna			LFAsuperior			LFAradius			LFAulna			RTH2		
		X1	Y1	Z1	X2	Y2	Z2	X3	Y3	Z3	X4	Y4	Z4	X5	Y5	Z5	X6	Y6	Z6	X7	Y7	Z7	X8	Y8	Z8	X9	Y9	Z9	X10	Y10	Z10	X11	Y11	Z11	X12	Y12	Z12	X13	Y13	Z13	X14	Y14	Z14	X15	Y15	Z15	X16	Y16	Z16	X17	Y17	Z17	X18	Y18	Z18	X19	Y19	Z19	X20	Y20	Z20	X21	Y21	Z21	X22	Y22	Z22	X23	Y23	Z23	X24	Y24	Z24	X25	Y25	Z25	X26	Y26	Z26	X27	Y27	Z27	X28	Y28	Z28	X29	Y29	Z29	X30	Y30	Z30	X31	Y31	Z31	X32	Y32	Z32	X33	Y33	Z33	X34	Y34	Z34	X35	Y35	Z35	X36	Y36	Z36	X37	Y37	Z37	X38	Y38	Z38	X39	Y39	Z39	X40	Y40	Z40	X41	Y41	Z41	X42	Y42	Z42	

325	  2.708333	1135.984535	1038.957373	-415.353340	1143.133400	1025.195307	-180.611691	971.558756	1066.192171	-345.739354	976.740728	1065.237929	-247.869781	1078.808164	860.235223	-135.765326	1039.720158	628.199449	-192.548493	1108.754248	868.950778	-487.658561	1213.884389	790.536440	-470.534213	1185.896342	654.159845	-441.921181	930.033845	436.616885	-249.740156	858.939596	470.789893	-189.891149	752.547772	396.270506	-238.217105	1317.767996	451.748008	-383.162972	1289.598660	346.861104	-424.379271	1331.238858	257.024493	-357.707464	594.669418	474.499766	-248.368989	611.788668	266.255198	-275.418366	576.374206	270.738376	-172.961013	1228.303206	128.280019	-332.303039	1431.967557	113.005737	-296.664761	1421.543527	 58.612456	-390.136821	1078.957828	1503.368561	-490.403898	1152.645425	1501.035748	-140.321427	1184.222921	1454.083588	-308.648265	1077.519647	1541.726636	-317.482154	1127.660781	1425.339455	-87.181407	1120.792623	1334.410896	-95.458876	1036.543870	1350.460767	-66.235078	1001.443769	1241.800982	-32.251248	968.157521	1241.947065	-98.619261	1012.200550	1468.644148	-531.654665	954.706631	1439.572682	-475.956010	950.467237	1384.368748	-543.295035	834.570634	1330.539565	-541.581144	833.351982	1330.372923	-467.389117	1092.266707	1207.485964	-46.990253	1226.212964	1115.098302	-125.304381	1186.870767	1061.237709	-113.626194	898.744038	1282.597467	-561.038466	1057.024788	1169.572529	-531.344717	1009.096538	1121.495819	-533.297131	1114.980686	708.628168	-185.964139	
326	  2.716667	1135.964356	1033.785275	-415.364204	1143.656616	1019.705395	-179.629200	971.556958	1059.703014	-344.782713	976.548037	1058.085543	-247.073134	1082.608631	854.519237	-134.965952	1048.657206	621.120985	-192.012909	1108.191518	863.821958	-486.308598	1214.550822	787.512487	-469.871694	1185.178152	649.587877	-441.309724	941.533808	433.920369	-247.462987	871.214509	471.998231	-188.988147	762.305942	401.592695	-236.782023	1311.615714	443.161768	-381.172485	1281.025513	338.617419	-422.524947	1319.742526	247.565592	-356.165794	607.304659	486.260914	-249.787957	617.461163	276.923000	-271.982570	582.128804	284.952241	-169.670988	1212.118777	122.540750	-331.025253	1414.660678	100.621627	-293.645035	1404.816670	 47.633706	-387.722500	1080.479767	1495.963068	-491.982435	1152.244214	1494.802195	-141.023522	1184.572390	1447.421824	-309.100010	1078.071851	1535.909158	-318.761150	1126.165961	1419.168487	-87.686806	1117.606100	1328.161231	-96.596105	1034.043157	1345.590008	-66.878869	996.462743	1238.370309	-33.348990	964.121431	1238.802894	-100.154078	1014.377713	1459.188621	-534.496003	955.598514	1430.308534	-479.788929	953.670566	1373.909340	-546.242736	838.543781	1318.602730	-545.419872	836.135250	1319.312932	-471.264906	1085.945974	1200.652255	-46.575903	1217.267446	1100.815929	-120.688688	1174.750816	1049.028347	-109.983575	903.386952	1271.373429	-563.828682	1063.381742	1161.810072	-530.777270	1016.275313	1112.924649	-532.409215	1121.270376	703.274698	-182.911842	
327	  2.725000	1136.034990	1027.369382	-415.067902	1144.168451	1013.696486	-178.560825	971.650718	1052.659185	-343.947893	976.363417	1050.556270	-246.262624	1085.556575	848.046649	-133.912611	1058.035833	613.618683	-191.248929	1107.997670	857.877902	-483.579631	1215.395194	784.631409	-468.585345	1184.682285	644.590793	-440.787493	953.901630	430.824459	-244.568589	884.488613	472.720077	-187.646131	773.282623	406.219623	-235.041124	1305.098588	433.123787	-379.353381	1271.153989	329.437048	-420.548563	1304.895533	236.986030	-354.347382	620.953539	496.761217	-251.094257	625.431904	286.688421	-268.740959	590.171229	297.895039	-166.626009	1191.415002	115.804283	-329.934084	1393.540138	 89.773602	-290.780513	1385.017436	 39.504389	-386.267558	1081.893090	1487.933997	-493.594534	1151.432876	1488.031646	-141.619279	1184.781839	1440.241196	-309.487880	1078.368352	1529.327969	-320.117551	1124.124722	1412.494491	-88.261895	1114.022664	1321.708492	-97.493258	1030.985003	1340.223720	-67.762658	991.138455	1234.425224	-34.596805	959.792204	1235.112189	-101.612799	1016.717159	1448.747226	-537.260134	956.365981	1420.104170	-484.066035	957.187108	1362.226729	-549.327206	842.975894	1305.485864	-549.518033	839.162346	1307.140528	-475.410140	1079.240684	1193.162485	-46.127385	1207.279276	1085.859588	-115.855463	1161.554170	1036.418662	-106.214048	908.542145	1259.041785	-566.806579	1070.125876	1153.152432	-529.964890	1023.940334	1103.348553	-531.595255	1127.860345	697.435592	-179.444869	
328	  2.733333	1135.984853	1019.809713	-414.649487	1144.602102	1007.494820	-177.529652	971.525902	1045.012431	-343.356725	976.140854	1042.688798	-245.619281	1087.770873	840.776841	-132.898615	1067.964354	605.727883	-190.208363	1108.396821	850.958272	-480.306572	1215.844064	780.883122	-466.129785	1184.429469	638.957447	-440.556819	967.088842	427.405617	-241.179633	898.661015	472.985303	-185.923866	785.456215	410.071072	-233.072411	1298.112591	421.888600	-377.595513	1259.352909	319.710394	-417.907367	1286.372897	225.980374	-351.325190	635.595215	505.927034	-252.133014	635.496254	295.389427	-265.725208	600.421048	309.324181	-163.801925	1166.489304	108.101058	-328.292821	1369.194979	 82.115756	-288.020025	1362.213805	 35.677875	-385.593791	1083.237651	1479.415905	-495.306311	1150.227767	1480.853661	-142.074326	1184.874228	1432.628144	-309.803853	1078.373517	1522.045768	-321.623765	1121.599791	1405.442004	-88.907217	1110.050168	1315.069302	-98.286856	1027.386369	1334.509994	-68.989419	985.558065	1230.027009	-35.984513	955.326663	1230.896156	-102.946814	1019.188451	1437.500061	-539.915531	957.159200	1409.041076	-488.631541	961.059538	1349.439475	-552.440009	847.924171	1291.399648	-553.815120	842.543278	1293.952737	-479.806882	1072.126959	1185.040149	-45.599843	1196.236512	1070.300483	-111.007761	1147.334322	1023.506252	-102.396070	914.307543	1245.765112	-569.832472	1077.224626	1143.663264	-528.946657	1032.065971	1092.880494	-530.714736	1134.881086	691.195145	-175.791827	
329	  2.741667	1135.542963	1011.381798	-414.420229	1144.733717	1001.190312	-176.829885	970.899152	1036.748086	-343.142009	975.648806	1034.438979	-245.429536	1089.489080	832.795168	-132.257755	1078.493318	597.577577	-188.802965	1109.090616	842.947674	-477.516375	1215.969285	775.522780	-462.641695	1184.600665	632.472124	-440.726179	981.087756	423.797596	-237.475781	913.639556	472.759156	-183.859382	798.829432	413.074434	-231.027361	1290.345510	410.035208	-375.210261	1245.521057	310.245987	-414.251063	1265.176536	215.672143	-346.573068	651.263220	513.624888	-252.811382	647.364117	302.857569	-262.962931	612.731949	319.012376	-161.180834	1138.992020	100.422278	-325.568422	1343.057861	 77.898199	-285.271754	1337.112271	 35.712482	-385.216087	1084.569870	1470.610924	-497.176820	1148.599001	1473.421904	-142.405570	1184.918438	1424.679020	-310.029671	1078.095604	1514.254115	-323.298821	1118.659597	1398.116322	-89.580467	1105.660935	1308.214148	-99.166417	1023.299558	1328.538740	-70.580082	979.808086	1225.230640	-37.518017	950.920767	1226.105996	-104.271700	1021.717810	1425.601569	-542.469783	958.103573	1397.109561	-493.303589	965.346818	1335.653003	-555.467267	853.464154	1276.522748	-558.228892	846.413843	1279.843680	-484.404000	1064.538797	1176.322602	-44.918319	1184.158733	1054.290304	-106.223007	1132.183152	1010.367362	-98.579858	920.731676	1231.684153	-572.759568	1084.683521	1133.430262	-527.732490	1040.638513	1081.659919	-529.654876	1142.369934	684.727167	-172.177177	
